# xmcd
#
# Track frame offsets:
#	150
#	12522
#	24372
#	35685
#	48260
#	61085
#	77040
#	88262
#	100357
#	112862
#	144055
#	163805
#	181197
#	198410
#	214930
#	233990
#
# Disc length: 3387 seconds
#
# Revision: 4
# Processed by: cddbd v1.5.1PL0 Copyright (c) Steve Scherf et al.
# Submitted via: MusicManager 7.2.0.0 
#
DISCID=cf0d3910
DTITLE=Various Artist - Motown Grammy Rhythm and Blues Performances of the 1960's and 1970"s
DYEAR=1984
DGENRE=Blues
TTITLE0=Martha Reeves and The Vandellas - Like A Heatwave
TTITLE1=The Supremes - Baby Love
TTITLE2=Marvin Gaye and Tammi Terrell - Ain't No Mountain High Enough
TTITLE3=Smokey Robinson and the Miracles - I Second That Emotion
TTITLE4=Stevie Wonder - For Once In My Life
TTITLE5=The Temptations - Cloud Nine
TTITLE6=Jr. Walker and the All Stars - What Does It Take (To Win Your Love)
TTITLE7=Stevie Wonder - Signed Sealed and Delivered
TTITLE8=Four Tops - It' All In The Game
TTITLE9=The Temptations - Papa Was A Rollin' Stone
TTITLE10=Gladys Knight and the Pips - Neither One Of Us (Wants To Be The First To Say Goodbye)
TTITLE11=Eddie Kendricks - Boogie Man
TTITLE12=Diana Ross - Love Hangover
TTITLE13=Thelma Houston - Don't Leave Me This Way
TTITLE14=Marvin Gay - Got To Give It Up
TTITLE15=Smokey Robinson - Cruisin'
EXTD=
EXTT0=
EXTT1=
EXTT2=
EXTT3=
EXTT4=
EXTT5=
EXTT6=
EXTT7=
EXTT8=
EXTT9=
EXTT10=
EXTT11=
EXTT12=
EXTT13=
EXTT14=
EXTT15=
PLAYORDER=
